<svg width="64" height="64" viewBox="0 0 64 64" fill="none" xmlns="http://www.w3.org/2000/svg">
<g clip-path="url(#clip0)">
<path d="M42.8 18C44.5667 18 46 19.4333 46 21.2V42.8C46 44.5667 44.5667 46 42.8 46H21.2C19.4333 46 18 44.5667 18 42.8V21.2C18 19.4333 19.4333 18 21.2 18H42.8Z" fill="#FFCBE9"/>
<path d="M42.9678 18.0042C45.5309 18.1367 45.3795 21.9999 42.8131 21.9999H35.8666C28.2082 21.9999 21.9999 28.2082 21.9999 35.8666V42.8131C21.9999 45.3797 18.1367 45.5309 18.0042 42.9678C17.9975 42.8371 17.9999 21.069 17.9999 21.1999C17.9999 19.4326 19.4326 17.9999 21.1999 17.9999C21.3306 17.9999 42.8374 17.9975 42.9678 18.0042Z" fill="#E988C0"/>
<path d="M36.2667 18V24.7588C36.2667 25.5633 35.4101 26.0783 34.6997 25.7008L32.5005 24.5325C32.1875 24.3663 31.8125 24.3663 31.4997 24.5325L29.3005 25.7008C28.5901 26.0783 27.7334 25.5633 27.7334 24.7588V18H36.2667Z" fill="#E2E0E2"/>
<path d="M36.2667 22V24.7587C36.2667 25.5627 35.4107 26.0787 34.7001 25.7013L32.5001 24.532C32.1881 24.3667 31.8121 24.3667 31.5001 24.532L29.3001 25.7013C28.5894 26.0787 27.7334 25.5627 27.7334 24.7587V24.6347C30.3955 22.7041 33.1814 22 36.2667 22Z" fill="#E988C0"/>
<path d="M32.4365 60.6614L33.9542 62.1791C34.6283 62.8531 34.1414 64 33.1999 64C32.927 64 32.6539 63.8959 32.4457 63.6876L29.1123 60.3543C28.6957 59.9378 28.6957 59.2624 29.1123 58.8459L32.4457 55.5125C32.8622 55.096 33.5375 55.096 33.9541 55.5125C34.3707 55.9291 34.3707 56.6044 33.9541 57.021L32.4473 58.5278C46.8722 58.2876 58.5333 46.4809 58.5333 32C58.5333 26.0161 56.5893 20.368 52.9115 15.6664C52.5486 15.2024 52.6305 14.532 53.0946 14.1691C53.5585 13.8063 54.2289 13.888 54.5919 14.3521C58.5659 19.4325 60.6666 25.5351 60.6666 32C60.6666 47.6991 48.0806 60.4292 32.4365 60.6614ZM51.1034 13.1464C52.0586 13.1464 52.5369 11.9733 51.8401 11.3081C51.3567 10.8455 50.6927 10.9168 50.3091 11.3156C49.6331 12.0184 50.1878 13.1464 51.1034 13.1464ZM26.1333 38.2667H22.9333C22.3442 38.2667 21.8666 38.7443 21.8666 39.3333C21.8666 39.9224 22.3442 40.4 22.9333 40.4H26.1333C26.7223 40.4 27.1999 39.9224 27.1999 39.3333C27.1999 38.7443 26.7223 38.2667 26.1333 38.2667ZM43.8666 46C43.8666 45.4109 43.389 44.9333 42.7999 44.9333H21.1999C20.0237 44.9333 19.0666 43.9763 19.0666 42.8V21.2C19.0666 20.0237 20.0237 19.0667 21.1999 19.0667H26.6666V26.5333C26.6666 27.3371 27.5242 27.8521 28.2337 27.4753L31.9999 25.4744L35.7662 27.4752C36.4761 27.8524 37.3333 27.3364 37.3333 26.5333V22.8C37.3333 22.2109 36.8557 21.7333 36.2666 21.7333C35.6775 21.7333 35.1999 22.2109 35.1999 22.8V24.7588L32.5003 23.3247C32.1873 23.1584 31.8125 23.1584 31.4994 23.3247L28.7999 24.7588V19.0667H42.7999C43.9762 19.0667 44.9333 20.0237 44.9333 21.2V40.1333C44.9333 40.7224 45.4109 41.2 45.9999 41.2C46.589 41.2 47.0666 40.7224 47.0666 40.1333V21.2C47.0666 18.8473 45.1526 16.9333 42.7999 16.9333H21.1999C18.8473 16.9333 16.9333 18.8473 16.9333 21.2V42.8C16.9333 45.1527 18.8473 47.0667 21.1999 47.0667H42.7999C43.389 47.0667 43.8666 46.5891 43.8666 46ZM5.46659 32C5.46659 17.5191 17.1277 5.71226 31.5525 5.47239L30.0457 6.97919C29.3715 7.65306 29.8583 8.79999 30.7999 8.79999C31.0729 8.79999 31.3459 8.69586 31.5542 8.48759L34.8875 5.15426C35.3042 4.73772 35.3042 4.06239 34.8875 3.64586L31.5542 0.312522C31.1377 -0.104011 30.4623 -0.104011 30.0458 0.312522C29.6291 0.729056 29.6291 1.40439 30.0458 1.82092L31.5635 3.33866C15.9297 3.57052 3.33325 16.2907 3.33325 32C3.33325 38.4648 5.43379 44.5675 9.40792 49.648C9.77112 50.1124 10.4417 50.1937 10.9053 49.8311C11.3693 49.4681 11.4513 48.7977 11.0883 48.3337C7.41045 43.632 5.46659 37.9839 5.46659 32ZM12.1247 51.1837C11.7418 51.5849 11.7006 52.2524 12.1826 52.7136C12.607 53.1219 13.2822 53.1091 13.6909 52.6843C14.0993 52.2596 14.0861 51.5844 13.6615 51.176C13.1707 50.7065 12.5055 50.7847 12.1247 51.1837Z" fill="#853C4F"/>
</g>
<defs>
<clipPath id="clip0">
<rect width="64" height="64" fill="white"/>
</clipPath>
</defs>
</svg>
