<svg width="61" height="89" viewBox="0 0 61 89" fill="none" xmlns="http://www.w3.org/2000/svg">
<path d="M26.2442 80.9249C40.7385 80.9249 52.4884 69.175 52.4884 54.6807C52.4884 40.1865 40.7385 28.4365 26.2442 28.4365C11.7499 28.4365 0 40.1865 0 54.6807C0 69.175 11.7499 80.9249 26.2442 80.9249Z" fill="#853C4F"/>
<path d="M31.5963 58.7174C31.4157 57.1569 30.8096 55.2096 29.7392 52.7464C28.5656 50.0768 28.2432 48.8388 28.1787 48.2584C28.1014 47.5878 28.3206 47.0204 28.8622 46.4658C29.2491 46.0789 30.4356 44.8925 33.5307 48.0005C35.1944 49.6641 36.4324 51.4438 37.2191 53.288C37.3094 53.5073 37.5028 53.6749 37.7221 53.7394C37.9542 53.8039 38.1992 53.7781 38.3927 53.6491L41.7586 51.4696C42.1197 51.2375 42.2358 50.7732 42.0295 50.3992C41.2557 49.0064 40.0434 47.4201 38.4185 45.6662L40.7656 43.3191C40.9333 43.1772 41.0365 42.958 41.0493 42.7388C41.0622 42.5195 40.972 42.3003 40.8172 42.1326L38.8699 40.1853C38.7151 40.0305 38.4959 39.9402 38.2637 39.9531C38.0445 39.966 37.8252 40.0692 37.6834 40.2368L35.2331 42.7259C33.2599 41.2815 31.3126 40.5979 29.4168 40.7011C27.3405 40.8172 25.5479 41.6039 24.1164 43.0354C22.4527 44.699 21.7563 46.8269 22.0271 49.3675C22.2077 50.8506 22.8267 52.8108 23.9229 55.3643C24.7612 57.3117 25.2512 58.7432 25.3544 59.6459C25.4705 60.5745 25.2383 61.3096 24.6709 61.8899C23.6005 62.9603 21.8208 62.251 19.3705 59.8136C17.5779 58.021 16.1722 55.9963 15.2049 53.8039C15.1147 53.5846 14.9212 53.4299 14.702 53.3654C14.4698 53.3009 14.2377 53.3396 14.0314 53.4686L10.6267 55.6867C10.2656 55.9318 10.1495 56.4218 10.3817 56.7829C11.6842 58.8593 13.2705 60.8711 15.1147 62.7927L12.7933 65.1269C12.6257 65.2688 12.5096 65.4622 12.4967 65.6815C12.4838 65.9007 12.5741 66.1199 12.7288 66.2747L14.7149 68.2607C14.7149 68.2607 14.7149 68.2608 14.7278 68.2736C15.0373 68.5832 15.5531 68.5832 15.8627 68.2736C15.9013 68.235 15.94 68.1834 15.9787 68.1318L18.4032 65.7202C22.4527 68.5574 26.3087 68.3252 29.5844 65.0366C31.1965 63.3988 31.8671 61.2709 31.5963 58.7174Z" fill="#BCDCC4"/>
<path d="M40.4948 88.018C51.8196 88.018 61.0001 78.8375 61.0001 67.5127C61.0001 56.188 51.8196 47.0074 40.4948 47.0074C29.17 47.0074 19.9895 56.188 19.9895 67.5127C19.9895 78.8375 29.17 88.018 40.4948 88.018Z" fill="#D590B8"/>
<path d="M47.7296 74.8379C46.2465 76.3983 44.3378 77.2624 42.3776 77.2624C39.1535 77.2624 36.3679 74.9926 35.0524 71.7299H44.0025C44.7763 71.7299 45.4082 71.0979 45.4082 70.3241C45.4082 69.5504 44.7763 68.9184 44.0025 68.9184H34.3302C34.2786 68.4542 34.24 67.9899 34.24 67.5127C34.24 66.9711 34.2786 66.4423 34.3431 65.9265H43.9896C44.7634 65.9265 45.3954 65.2945 45.3954 64.5208C45.3954 63.747 44.7634 63.115 43.9896 63.115H35.104C36.4452 59.9425 39.1922 57.7501 42.3518 57.7501C44.3249 57.7501 46.2207 58.6142 47.7038 60.1747C48.2326 60.7421 49.1224 60.755 49.6899 60.2262C50.2573 59.6975 50.2702 58.7947 49.7414 58.2402C47.7167 56.1123 45.0987 54.9387 42.3518 54.9387C37.6704 54.9387 33.6596 58.3434 32.0991 63.115H28.3334C27.5596 63.115 26.9277 63.747 26.9277 64.5208C26.9277 65.2945 27.5596 65.9265 28.3334 65.9265H31.493C31.4414 66.4423 31.4027 66.9711 31.4027 67.5127C31.4027 67.9899 31.4285 68.4542 31.4672 68.9184H28.3205C27.5467 68.9184 26.9148 69.5504 26.9148 70.3241C26.9148 71.0979 27.5467 71.7299 28.3205 71.7299H32.0347C33.5435 76.5918 37.593 80.0738 42.3389 80.0738C45.0858 80.0738 47.7038 78.9003 49.7285 76.7723C50.2573 76.2049 50.2444 75.3151 49.677 74.7863C49.1482 74.2575 48.2584 74.2704 47.7296 74.8379Z" fill="#D9D294"/>
<path d="M24.9545 26.3087C24.9545 26.3087 13.9926 18.4419 21.4725 0C21.4725 0 32.0476 10.4461 24.9545 26.3087Z" fill="#BCDCC4"/>
<path d="M25.7283 26.1797C25.7283 26.1797 27.2758 17.2811 40.4302 19.8604C40.4302 19.8604 34.8847 27.4693 25.7283 26.1797Z" fill="#BCDCC4"/>
</svg>
