<svg width="1440" height="386" viewBox="0 0 1440 386" fill="none" xmlns="http://www.w3.org/2000/svg">
<path d="M1226.05 0.138157C1345.03 -0.818559 1383.53 -1.12817 1492.5 156.167V360.167C1315.24 432.668 756.5 501.666 756.5 501.666L-1.99995 436.166C-216 417.833 -124.637 254.613 -57.4999 174.667C10.9365 93.1732 108.571 201.351 214.5 191.167C384.261 174.846 454.517 46.7273 625 42.1666C765.986 38.395 836.949 150.746 976 127.167C1082.77 109.062 1114.21 1.02346 1222.5 0.16657L1226.05 0.138157Z" fill="url(#paint0_linear)"/>
<path d="M1226.05 96.9717C1345.03 96.0149 1383.53 95.7053 1492.5 253V457C1315.24 529.501 756.5 598.5 756.5 598.5L-1.99995 533C-216 514.666 -124.637 351.446 -57.4999 271.5C10.9365 190.007 108.571 298.184 214.5 288C384.261 271.68 454.517 143.561 625 139C765.986 135.229 836.949 247.58 976 224C1082.77 205.896 1114.21 97.857 1222.5 97.0001L1226.05 96.9717Z" fill="url(#paint1_linear)"/>
<defs>
<linearGradient id="paint0_linear" x1="2.00001" y1="189.5" x2="1357.5" y2="30.9999" gradientUnits="userSpaceOnUse">
<stop stop-color="#D590B8"/>
<stop offset="1" stop-color="white" stop-opacity="0"/>
</linearGradient>
<linearGradient id="paint1_linear" x1="-76" y1="365" x2="1560.5" y2="-197.5" gradientUnits="userSpaceOnUse">
<stop stop-color="#D590B8"/>
<stop offset="1" stop-color="#D590B8" stop-opacity="0"/>
</linearGradient>
</defs>
</svg>
